<svg width="12" height="12" viewBox="0 0 12 12" fill="none" xmlns="http://www.w3.org/2000/svg">
<g clip-path="url(#clip0_6617_35526)">
<path d="M11.2502 6C11.2514 6.15381 11.2047 6.30417 11.1165 6.43018C11.0283 6.55619 10.903 6.65159 10.7581 6.70312L7.78431 7.78453L6.70337 10.7578C6.65009 10.9013 6.55416 11.0251 6.42847 11.1125C6.30278 11.2 6.15334 11.2468 6.00024 11.2468C5.84714 11.2468 5.69771 11.2 5.57201 11.1125C5.44632 11.0251 5.35039 10.9013 5.29712 10.7578L4.21571 7.78125L1.24243 6.70312C1.0989 6.64984 0.975107 6.55392 0.88769 6.42823C0.800274 6.30253 0.753418 6.1531 0.753418 6C0.753418 5.8469 0.800274 5.69746 0.88769 5.57177C0.975107 5.44608 1.0989 5.35015 1.24243 5.29687L4.21899 4.21547L5.29712 1.24218C5.35039 1.09865 5.44632 0.974862 5.57201 0.887446C5.69771 0.800029 5.84714 0.753174 6.00024 0.753174C6.15334 0.753174 6.30278 0.800029 6.42847 0.887446C6.55416 0.974862 6.65009 1.09865 6.70337 1.24218L7.78477 4.21875L10.7581 5.29687C10.903 5.3484 11.0283 5.4438 11.1165 5.56981C11.2047 5.69582 11.2514 5.84618 11.2502 6Z" fill="#303236"/>
</g>
<defs>
<clipPath id="clip0_6617_35526">
<rect width="12" height="12" fill="white"/>
</clipPath>
</defs>
</svg>
